<svg id="Capa_1" data-name="Capa 1" xmlns="http://www.w3.org/2000/svg" viewBox="0 0 147.6 73.91"><defs><style>.cls-1,.cls-2,.cls-3{isolation:isolate;}.cls-2,.cls-3{font-size:24px;font-family:AndaleMono, Andale Mono;}.cls-2,.cls-4{fill:#fff;}.cls-3{fill:none;}.cls-3,.cls-4{stroke:#000;stroke-miterlimit:10;}</style></defs><title>logo2</title><g id="Capa_2" data-name="Capa 2"><g id="Capa_1-2" data-name="Capa 1-2"><g class="cls-1"><text class="cls-2" transform="translate(0.5 65.33)">COLLECTIVE</text><text class="cls-3" transform="translate(0.5 65.33)">COLLECTIVE</text></g><path class="cls-4" d="M18,48H3V44.62H8.7V18.25H3V14.9H18v3.35H12.54V44.62H18ZM16,5,8.75,12H6.12l4.64-7Z" transform="translate(0 -4.5)"/><path class="cls-4" d="M49.46,48H45.19L33.33,21.86V48H29.49V14.9h4.29l11.9,25.88V14.9h3.77Z" transform="translate(0 -4.5)"/><path class="cls-4" d="M77.42,18.25H63.73V29H76.2V32.4H63.73V48H59.89V14.9H77.42Z" transform="translate(0 -4.5)"/><path class="cls-4" d="M104.44,48h-15V44.62h5.7V18.25h-5.7V14.9h15v3.35H99V44.62h5.48Z" transform="translate(0 -4.5)"/><path class="cls-4" d="M136.55,48h-3.7V19.61l-5,13.57h-3.63l-5-13.57V48h-3.7V14.9h5L126,30l5.51-15.07h5Z" transform="translate(0 -4.5)"/><g class="cls-1"><text class="cls-2" transform="translate(1.83 66.72)">COLLECTIVE</text><text class="cls-3" transform="translate(1.83 66.72)">COLLECTIVE</text></g><path class="cls-4" d="M20.35,49.36h-15V46H11V19.64H5.33V16.29h15v3.35H14.87V46h5.48Zm-2-43L11,13.41H8.45l4.64-7.05Z" transform="translate(0 -4.5)"/><path class="cls-4" d="M51.78,49.36H47.52L35.66,23.25V49.36H31.82V16.29H36.1L48,42.16V16.29h3.77Z" transform="translate(0 -4.5)"/><path class="cls-4" d="M79.75,19.64H66.06v10.8H78.53V33.8H66.06V49.36H62.21V16.29H79.75Z" transform="translate(0 -4.5)"/><path class="cls-4" d="M106.77,49.36h-15V46h5.7V19.64h-5.7V16.29h15v3.35h-5.48V46h5.48Z" transform="translate(0 -4.5)"/><path class="cls-4" d="M138.88,49.36h-3.7V21l-5,13.57h-3.63l-5-13.57V49.36h-3.7V16.29h5l5.53,15.07,5.51-15.07h5Z" transform="translate(0 -4.5)"/><path class="cls-4" d="M22.35,50.71h-15V47.36H13V21H7.33V17.64h15V21H16.87V47.36h5.48Zm-2-43L13,14.76H10.45L15.09,7.7Z" transform="translate(0 -4.5)"/><path class="cls-4" d="M53.78,50.71H49.52L37.66,24.6V50.71H33.82V17.64H38.1L50,43.51V17.64h3.77Z" transform="translate(0 -4.5)"/><path class="cls-4" d="M81.75,21H68.06V31.8H80.53v3.35H68.06V50.71H64.21V17.64H81.75Z" transform="translate(0 -4.5)"/><path class="cls-4" d="M108.77,50.71h-15V47.36h5.7V21h-5.7V17.64h15V21h-5.48V47.36h5.48Z" transform="translate(0 -4.5)"/><path class="cls-4" d="M140.88,50.71h-3.7V22.35l-5,13.57h-3.63l-5-13.57V50.71h-3.7V17.64h5l5.53,15.07,5.51-15.07h5Z" transform="translate(0 -4.5)"/><g class="cls-1"><text class="cls-2" transform="translate(3.08 68.17)">COLLECTIVE</text><text class="cls-3" transform="translate(3.08 68.17)">COLLECTIVE</text></g></g></g></svg>