<svg xmlns="http://www.w3.org/2000/svg" viewBox="0 0 307.44 78.41"><defs><style>.cls-1{font-size:48px;font-family:AndaleMono, Andale Mono;}.cls-1,.cls-3{fill:#fff;stroke:#000;stroke-miterlimit:10;}.cls-2{font-size:24px;}</style></defs><title>Recurso 2</title><g id="Capa_2" data-name="Capa 2"><g id="Capa_1-2" data-name="Capa 1"><text class="cls-1" transform="translate(0.5 41.03)"><tspan class="cls-2"><tspan x="0" y="28.8">COLLECTIVE</tspan></tspan></text><text></text><path class="cls-3" d="M18,48H3V44.62H8.7V18.25H3V14.9H18v3.35H12.54V44.62H18Zm-2-43L8.75,12H6.12L10.76,5Z"/><path class="cls-3" d="M49.46,48H45.19L33.33,21.86V48H29.49V14.9h4.29L45.68,40.78V14.9h3.77Z"/><path class="cls-3" d="M77.42,18.25H63.73v10.8H76.2v3.35H63.73V48H59.89V14.9H77.42Z"/><path class="cls-3" d="M104.44,48h-15V44.62h5.7V18.25h-5.7V14.9h15v3.35H99V44.62h5.48Z"/><path class="cls-3" d="M136.55,48h-3.7V19.61l-5,13.57h-3.63l-5-13.57V48h-3.7V14.9h5L126,30l5.51-15.07h5Z"/><text class="cls-1" transform="translate(1.83 42.42)"><tspan class="cls-2"><tspan x="0" y="28.8">COLLECTIVE</tspan></tspan></text><text></text><path class="cls-3" d="M20.35,49.36h-15V46H11V19.64H5.33V16.29h15v3.35H14.87V46h5.48Zm-2-43-7.31,7.05H8.45l4.64-7.05Z"/><path class="cls-3" d="M51.78,49.36H47.52L35.66,23.25V49.36H31.82V16.29H36.1L48,42.16V16.29h3.77Z"/><path class="cls-3" d="M79.75,19.64H66.06v10.8H78.53V33.8H66.06V49.36H62.21V16.29H79.75Z"/><path class="cls-3" d="M106.77,49.36h-15V46h5.7V19.64h-5.7V16.29h15v3.35h-5.48V46h5.48Z"/><path class="cls-3" d="M138.88,49.36h-3.7V21l-5,13.57h-3.63l-5-13.57V49.36h-3.7V16.29h5l5.53,15.07,5.51-15.07h5Z"/><text></text><path class="cls-3" d="M22.35,50.71h-15V47.36H13V21H7.33V17.64h15V21H16.87V47.36h5.48Zm-2-43-7.31,7.05H10.45L15.09,7.7Z"/><path class="cls-3" d="M53.78,50.71H49.52L37.66,24.6V50.71H33.82V17.64H38.1L50,43.51V17.64h3.77Z"/><path class="cls-3" d="M81.75,21H68.06V31.8H80.53v3.35H68.06V50.71H64.21V17.64H81.75Z"/><path class="cls-3" d="M108.77,50.71h-15V47.36h5.7V21h-5.7V17.64h15V21h-5.48V47.36h5.48Z"/><path class="cls-3" d="M140.88,50.71h-3.7V22.35l-5,13.57h-3.63l-5-13.57V50.71h-3.7V17.64h5l5.53,15.07,5.51-15.07h5Z"/><text class="cls-1" transform="translate(3.08 43.87)"><tspan class="cls-2"><tspan x="0" y="28.8">COLLECTIVE</tspan></tspan></text></g></g></svg>